<?xml version="1.0" encoding="iso-8859-1"?>
<!-- Generator: Adobe Illustrator 19.0.0, SVG Export Plug-In . SVG Version: 6.00 Build 0)  -->
<svg version="1.1" id="Capa_1" xmlns="http://www.w3.org/2000/svg" xmlns:xlink="http://www.w3.org/1999/xlink" x="0px" y="0px"
	 viewBox="0 0 512.009 512.009" style="enable-background:new 0 0 512.009 512.009;" xml:space="preserve">
<g>
	<path style="fill:#A4C2F7;" d="M256.001,9.141c-49.726-0.071-98.302,14.95-139.309,43.076c0.162,12.332-5.892,23.917-16.108,30.826
		c-6.296,3.879-12.336,8.159-18.082,12.814c-5.479,5.925-11.327,11.497-17.509,16.682c-2.845,2.433-7.016,2.505-9.944,0.172
		c-66.111,92.763-60.151,218.722,14.423,304.828s198.39,109.993,299.644,57.807S522.759,308.459,495.9,197.76
		C469.041,87.06,369.912,9.121,256.001,9.141L256.001,9.141z"/>
	<path style="fill:#E3E7F2;" d="M228.573,9.141c-3.526,0-7.025,0.117-10.514,0.265c-8.138,16.615-26.437,20.409-43.614,21.291
		c-3.889,0.199-9.268-0.097-15.066-0.303c-0.389,2.858-2.126,5.356-4.67,6.715c-12.602,7.324-24.756,15.282-36.778,23.456
		c0.628,3.813-1.092,7.631-4.364,9.687c-25.596,17.007-46.894,39.508-71.411,57.957c-9.347,16.101-14.202,39.263-19.804,53.995
		c-2.924,7.689-5.942,15.326-9.054,22.914c0.74,17.551-5.152,33.91-5.69,51.642c-0.084,0.737-0.254,1.462-0.506,2.16
		c6.98,38.147,12.977,74.02,37.917,109.039c13.123,18.426,19.679,38.011,31.321,56.905c14.185,23.019,40.471,33.969,61.988,48.881
		c2.376,1.53,3.986,4.003,4.424,6.795c9.957,5.09,20.119,9.786,29.862,15.3c0.323,0.203,0.635,0.422,0.934,0.658
		c92.436,21.169,188.826-12.498,247.981-86.615s70.61-175.573,29.47-261.014S323.402,9.115,228.573,9.141z"/>
	<path style="fill:#FFFFFF;" d="M260.573,503.253c4.604,0,9.172-0.15,13.714-0.398C144.334,495.736,36.573,396.872,36.573,265.141
		C36.579,134.139,138.916,25.957,269.716,18.682c-4.542-0.249-9.11-0.398-13.714-0.398c-136.335,0-246.857,110.522-246.857,246.857
		S124.237,503.253,260.573,503.253z"/>
	<g>
		<path style="fill:#428DFF;" d="M256.001,511.998c-96.539-0.009-184.865-54.32-228.438-140.467S-7.42,182.053,49.778,104.283
			c1.935-2.636,5.131-4.038,8.381-3.676c3.25,0.362,6.059,2.433,7.366,5.431c1.307,2.998,0.913,6.465-1.033,9.093
			C-7.852,213.493,6.082,350.665,96.727,432.469s228.524,81.637,318.971-0.387c2.419-2.195,5.826-2.932,8.936-1.934
			c3.11,0.998,5.452,3.58,6.143,6.772c0.691,3.193-0.374,6.511-2.794,8.706C380.918,488.389,319.592,512.056,256.001,511.998
			L256.001,511.998z"/>
		<path style="fill:#428DFF;" d="M467.108,393.145c-3.301-0.003-6.344-1.785-7.961-4.663c-1.617-2.878-1.557-6.404,0.157-9.225
			c58.443-96.431,41.11-220.652-41.497-297.401S210.042-3.06,118.162,62.306c-2.66,1.895-6.13,2.226-9.101,0.87
			c-2.971-1.357-4.993-4.195-5.304-7.447c-0.311-3.251,1.137-6.422,3.797-8.316c98.948-70.385,233.727-61.586,322.685,21.066
			s107.624,216.422,44.69,320.269C473.272,391.482,470.306,393.149,467.108,393.145L467.108,393.145z"/>
		<path style="fill:#428DFF;" d="M374.858,155.426H137.144c-5.049,0-9.143-4.093-9.143-9.143s4.093-9.143,9.143-9.143h237.714
			c5.049,0,9.143,4.093,9.143,9.143S379.908,155.426,374.858,155.426z"/>
		<path style="fill:#428DFF;" d="M411.43,301.712H100.573c-5.049,0-9.143-4.093-9.143-9.143c0-5.049,4.093-9.143,9.143-9.143H411.43
			c5.049,0,9.143,4.093,9.143,9.143C420.573,297.619,416.479,301.712,411.43,301.712z"/>
		<path style="fill:#428DFF;" d="M411.43,228.569H100.573c-5.049,0-9.143-4.093-9.143-9.143s4.093-9.143,9.143-9.143H411.43
			c5.049,0,9.143,4.093,9.143,9.143S416.479,228.569,411.43,228.569z"/>
		<path style="fill:#428DFF;" d="M374.858,374.855H137.144c-5.049,0-9.143-4.093-9.143-9.143c0-5.049,4.093-9.143,9.143-9.143
			h237.714c5.049,0,9.143,4.093,9.143,9.143C384.001,370.761,379.908,374.855,374.858,374.855z"/>
		<circle style="fill:#428DFF;" cx="82.287" cy="82.283" r="9.143"/>
		<circle style="fill:#428DFF;" cx="448.001" cy="411.426" r="9.143"/>
	</g>
</g>
<g>
</g>
<g>
</g>
<g>
</g>
<g>
</g>
<g>
</g>
<g>
</g>
<g>
</g>
<g>
</g>
<g>
</g>
<g>
</g>
<g>
</g>
<g>
</g>
<g>
</g>
<g>
</g>
<g>
</g>
</svg>
